{
  "accessors": [
    {
      "bufferView": 0,
      "componentType": 5126,
      "count": 104,
      "max": [
        0.06531529873609543,
        2.7813336849212646,
        0.4114108979701996
      ],
      "min": [
        -0.06531529128551483,
        -0.5,
        -0.417871356010437
      ],
      "type": "VEC3"
    },
    {
      "bufferView": 1,
      "componentType": 5126,
      "count": 104,
      "type": "VEC3"
    },
    {
      "bufferView": 2,
      "componentType": 5126,
      "count": 104,
      "type": "VEC2"
    },
    {
      "bufferView": 3,
      "componentType": 5125,
      "count": 156,
      "type": "SCALAR"
    }
  ],
  "asset": {
    "generator": "Prisma3D Pro",
    "version": "2.0"
  },
  "bufferViews": [
    {
      "buffer": 0,
      "byteLength": 1248,
      "target": 34962
    },
    {
      "buffer": 1,
      "byteLength": 1248,
      "target": 34962
    },
    {
      "buffer": 2,
      "byteLength": 832,
      "target": 34962
    },
    {
      "buffer": 3,
      "byteLength": 624,
      "target": 34963
    }
  ],
  "buffers": [
    {
      "byteLength": 1248,
      "uri": "data:application/octet-stream;base64,"
    },
    {
      "byteLength": 1248,
      "uri": "data:application/octet-stream;base64,"
    },
    {
      "byteLength": 832,
      "uri": "data:application/octet-stream;base64,"
    },
    {
      "byteLength": 624,
      "uri": "data:application/octet-stream;base64,"
    }
  ],
  "materials": [
    {
      "doubleSided": true,
      "pbrMetallicRoughness": {
        "metallicFactor": 0.0,
        "roughnessFactor": 0.0
      }
    }
  ],
  "meshes": [
    {
      "primitives": [
        {
          "attributes": {
            "NORMAL": 1,
            "POSITION": 0,
            "TEXCOORD_0": 2
          },
          "indices": 3,
          "material": 0,
          "mode": 4
        }
      ]
    }
  ],
  "nodes": [
    {
      "children": [
        1
      ],
      "name": "Cube",
      "rotation": [
        0.0,
        -0.0,
        -0.0,
        1.0
      ],
      "scale": [
        1.0,
        1.0,
        1.0
      ],
      "translation": [
        -0.0,
        0.0,
        0.0
      ]
    },
    {
      "mesh": 0,
      "name": "Cube",
      "rotation": [
        0.0,
        -0.0,
        -0.0,
        1.0
      ],
      "scale": [
        1.0,
        1.0,
        1.0
      ],
      "translation": [
        -0.0,
        0.5256824493408203,
        0.0
      ]
    }
  ],
  "scenes": [
    {
      "nodes": [
        0
      ]
    }
  ]
}
