{
    "asset": {
        "version": "2.0",
        "generator": "goxel"
    },
    "buffers": [
        {
            "byteLength": 8400,
            "uri": "data:application/octet-stream;base64,"
        },
        {
            "byteLength": 900,
            "uri": "data:application/octet-stream;base64,"
        },
        {
            "byteLength": 13216,
            "uri": "data:application/octet-stream;base64,"
        },
        {
            "byteLength": 1416,
            "uri": "data:application/octet-stream;base64,"
        },
        {
            "byteLength": 896,
            "uri": "data:application/octet-stream;base64,"
        },
        {
            "byteLength": 96,
            "uri": "data:application/octet-stream;base64,"
        },
        {
            "byteLength": 1456,
            "uri": "data:application/octet-stream;base64,"
        },
        {
            "byteLength": 156,
            "uri": "data:application/octet-stream;base64,"
        }
    ],
    "bufferViews": [
        {
            "buffer": 1,
            "byteLength": 900,
            "target": 34963
        },
        {
            "buffer": 0,
            "byteLength": 8400,
            "byteStride": 28,
            "target": 34962
        },
        {
            "buffer": 3,
            "byteLength": 1416,
            "target": 34963
        },
        {
            "buffer": 2,
            "byteLength": 13216,
            "byteStride": 28,
            "target": 34962
        },
        {
            "buffer": 5,
            "byteLength": 96,
            "target": 34963
        },
        {
            "buffer": 4,
            "byteLength": 896,
            "byteStride": 28,
            "target": 34962
        },
        {
            "buffer": 7,
            "byteLength": 156,
            "target": 34963
        },
        {
            "buffer": 6,
            "byteLength": 1456,
            "byteStride": 28,
            "target": 34962
        }
    ],
    "meshes": [
        {
            "primitives": [
                {
                    "attributes": {
                        "POSITION": 1,
                        "COLOR_0": 2,
                        "NORMAL": 3
                    },
                    "indices": 0
                }
            ]
        },
        {
            "primitives": [
                {
                    "attributes": {
                        "POSITION": 5,
                        "COLOR_0": 6,
                        "NORMAL": 7
                    },
                    "indices": 4
                }
            ]
        },
        {
            "primitives": [
                {
                    "attributes": {
                        "POSITION": 9,
                        "COLOR_0": 10,
                        "NORMAL": 11
                    },
                    "indices": 8
                }
            ]
        },
        {
            "primitives": [
                {
                    "attributes": {
                        "POSITION": 13,
                        "COLOR_0": 14,
                        "NORMAL": 15
                    },
                    "indices": 12
                }
            ]
        }
    ],
    "accessors": [
        {
            "bufferView": 0,
            "componentType": 5123,
            "count": 450,
            "type": "SCALAR"
        },
        {
            "bufferView": 1,
            "componentType": 5126,
            "byteOffset": 0,
            "type": "VEC3",
            "count": 300,
            "min": [
                0.000000000000,
                14.000000000000,
                0.000000000000
            ],
            "max": [
                5.000000000000,
                16.000000000000,
                9.000000000000
            ]
        },
        {
            "bufferView": 1,
            "componentType": 5121,
            "byteOffset": 24,
            "type": "VEC4",
            "count": 300,
            "normalized": true
        },
        {
            "bufferView": 1,
            "componentType": 5126,
            "byteOffset": 12,
            "type": "VEC3",
            "count": 300
        },
        {
            "bufferView": 2,
            "componentType": 5123,
            "count": 708,
            "type": "SCALAR"
        },
        {
            "bufferView": 3,
            "componentType": 5126,
            "byteOffset": 0,
            "type": "VEC3",
            "count": 472,
            "min": [
                0.000000000000,
                0.000000000000,
                0.000000000000
            ],
            "max": [
                5.000000000000,
                4.000000000000,
                9.000000000000
            ]
        },
        {
            "bufferView": 3,
            "componentType": 5121,
            "byteOffset": 24,
            "type": "VEC4",
            "count": 472,
            "normalized": true
        },
        {
            "bufferView": 3,
            "componentType": 5126,
            "byteOffset": 12,
            "type": "VEC3",
            "count": 472
        },
        {
            "bufferView": 4,
            "componentType": 5123,
            "count": 48,
            "type": "SCALAR"
        },
        {
            "bufferView": 5,
            "componentType": 5126,
            "byteOffset": 0,
            "type": "VEC3",
            "count": 32,
            "min": [
                15.000000000000,
                0.000000000000,
                0.000000000000
            ],
            "max": [
                16.000000000000,
                1.000000000000,
                3.000000000000
            ]
        },
        {
            "bufferView": 5,
            "componentType": 5121,
            "byteOffset": 24,
            "type": "VEC4",
            "count": 32,
            "normalized": true
        },
        {
            "bufferView": 5,
            "componentType": 5126,
            "byteOffset": 12,
            "type": "VEC3",
            "count": 32
        },
        {
            "bufferView": 6,
            "componentType": 5123,
            "count": 78,
            "type": "SCALAR"
        },
        {
            "bufferView": 7,
            "componentType": 5126,
            "byteOffset": 0,
            "type": "VEC3",
            "count": 52,
            "min": [
                14.000000000000,
                15.000000000000,
                0.000000000000
            ],
            "max": [
                16.000000000000,
                16.000000000000,
                3.000000000000
            ]
        },
        {
            "bufferView": 7,
            "componentType": 5121,
            "byteOffset": 24,
            "type": "VEC4",
            "count": 52,
            "normalized": true
        },
        {
            "bufferView": 7,
            "componentType": 5126,
            "byteOffset": 12,
            "type": "VEC3",
            "count": 52
        }
    ],
    "nodes": [
        {
            "matrix": [
                1,
                0,
                0,
                0,
                0,
                0,
                -1,
                0,
                0,
                1,
                0,
                0,
                0,
                0,
                0,
                1
            ],
            "children": [
                1,
                2,
                3,
                4
            ]
        },
        {
            "translation": [
                0,
                -16,
                0
            ],
            "mesh": 0
        },
        {
            "translation": [
                0,
                0,
                0
            ],
            "mesh": 1
        },
        {
            "translation": [
                -16,
                0,
                0
            ],
            "mesh": 2
        },
        {
            "translation": [
                -16,
                -16,
                0
            ],
            "mesh": 3
        }
    ],
    "scenes": [
        {
            "nodes": [
                0
            ]
        }
    ]
}