{
    "asset": {
        "version": "2.0",
        "generator": "goxel"
    },
    "buffers": [
        {
            "byteLength": 8400,
            "uri": "data:application/octet-stream;base64,"
        },
        {
            "byteLength": 900,
            "uri": "data:application/octet-stream;base64,"
        },
        {
            "byteLength": 6832,
            "uri": "data:application/octet-stream;base64,"
        },
        {
            "byteLength": 732,
            "uri": "data:application/octet-stream;base64,"
        }
    ],
    "bufferViews": [
        {
            "buffer": 1,
            "byteLength": 900,
            "target": 34963
        },
        {
            "buffer": 0,
            "byteLength": 8400,
            "byteStride": 28,
            "target": 34962
        },
        {
            "buffer": 3,
            "byteLength": 732,
            "target": 34963
        },
        {
            "buffer": 2,
            "byteLength": 6832,
            "byteStride": 28,
            "target": 34962
        }
    ],
    "meshes": [
        {
            "primitives": [
                {
                    "attributes": {
                        "POSITION": 1,
                        "COLOR_0": 2,
                        "NORMAL": 3
                    },
                    "indices": 0
                }
            ]
        },
        {
            "primitives": [
                {
                    "attributes": {
                        "POSITION": 5,
                        "COLOR_0": 6,
                        "NORMAL": 7
                    },
                    "indices": 4
                }
            ]
        }
    ],
    "accessors": [
        {
            "bufferView": 0,
            "componentType": 5123,
            "count": 450,
            "type": "SCALAR"
        },
        {
            "bufferView": 1,
            "componentType": 5126,
            "byteOffset": 0,
            "type": "VEC3",
            "count": 300,
            "min": [
                0.000000000000,
                13.000000000000,
                0.000000000000
            ],
            "max": [
                5.000000000000,
                16.000000000000,
                9.000000000000
            ]
        },
        {
            "bufferView": 1,
            "componentType": 5121,
            "byteOffset": 24,
            "type": "VEC4",
            "count": 300,
            "normalized": true
        },
        {
            "bufferView": 1,
            "componentType": 5126,
            "byteOffset": 12,
            "type": "VEC3",
            "count": 300
        },
        {
            "bufferView": 2,
            "componentType": 5123,
            "count": 366,
            "type": "SCALAR"
        },
        {
            "bufferView": 3,
            "componentType": 5126,
            "byteOffset": 0,
            "type": "VEC3",
            "count": 244,
            "min": [
                0.000000000000,
                0.000000000000,
                0.000000000000
            ],
            "max": [
                5.000000000000,
                3.000000000000,
                9.000000000000
            ]
        },
        {
            "bufferView": 3,
            "componentType": 5121,
            "byteOffset": 24,
            "type": "VEC4",
            "count": 244,
            "normalized": true
        },
        {
            "bufferView": 3,
            "componentType": 5126,
            "byteOffset": 12,
            "type": "VEC3",
            "count": 244
        }
    ],
    "nodes": [
        {
            "matrix": [
                1,
                0,
                0,
                0,
                0,
                0,
                -1,
                0,
                0,
                1,
                0,
                0,
                0,
                0,
                0,
                1
            ],
            "children": [
                1,
                2
            ]
        },
        {
            "translation": [
                0,
                -16,
                0
            ],
            "mesh": 0
        },
        {
            "translation": [
                0,
                0,
                0
            ],
            "mesh": 1
        }
    ],
    "scenes": [
        {
            "nodes": [
                0
            ]
        }
    ]
}