{
    "asset": {
        "version": "2.0",
        "generator": "goxel"
    },
    "buffers": [
        {
            "byteLength": 9072,
            "uri": "data:application/octet-stream;base64,"
        },
        {
            "byteLength": 972,
            "uri": "data:application/octet-stream;base64,"
        },
        {
            "byteLength": 3136,
            "uri": "data:application/octet-stream;base64,"
        },
        {
            "byteLength": 336,
            "uri": "data:application/octet-stream;base64,"
        },
        {
            "byteLength": 1008,
            "uri": "data:application/octet-stream;base64,"
        },
        {
            "byteLength": 108,
            "uri": "data:application/octet-stream;base64,"
        }
    ],
    "bufferViews": [
        {
            "buffer": 1,
            "byteLength": 972,
            "target": 34963
        },
        {
            "buffer": 0,
            "byteLength": 9072,
            "byteStride": 28,
            "target": 34962
        },
        {
            "buffer": 3,
            "byteLength": 336,
            "target": 34963
        },
        {
            "buffer": 2,
            "byteLength": 3136,
            "byteStride": 28,
            "target": 34962
        },
        {
            "buffer": 5,
            "byteLength": 108,
            "target": 34963
        },
        {
            "buffer": 4,
            "byteLength": 1008,
            "byteStride": 28,
            "target": 34962
        }
    ],
    "meshes": [
        {
            "primitives": [
                {
                    "attributes": {
                        "POSITION": 1,
                        "COLOR_0": 2,
                        "NORMAL": 3
                    },
                    "indices": 0
                }
            ]
        },
        {
            "primitives": [
                {
                    "attributes": {
                        "POSITION": 5,
                        "COLOR_0": 6,
                        "NORMAL": 7
                    },
                    "indices": 4
                }
            ]
        },
        {
            "primitives": [
                {
                    "attributes": {
                        "POSITION": 9,
                        "COLOR_0": 10,
                        "NORMAL": 11
                    },
                    "indices": 8
                }
            ]
        }
    ],
    "accessors": [
        {
            "bufferView": 0,
            "componentType": 5123,
            "count": 486,
            "type": "SCALAR"
        },
        {
            "bufferView": 1,
            "componentType": 5126,
            "byteOffset": 0,
            "type": "VEC3",
            "count": 324,
            "min": [
                12.000000000000,
                0.000000000000,
                0.000000000000
            ],
            "max": [
                16.000000000000,
                5.000000000000,
                7.000000000000
            ]
        },
        {
            "bufferView": 1,
            "componentType": 5121,
            "byteOffset": 24,
            "type": "VEC4",
            "count": 324,
            "normalized": true
        },
        {
            "bufferView": 1,
            "componentType": 5126,
            "byteOffset": 12,
            "type": "VEC3",
            "count": 324
        },
        {
            "bufferView": 2,
            "componentType": 5123,
            "count": 168,
            "type": "SCALAR"
        },
        {
            "bufferView": 3,
            "componentType": 5126,
            "byteOffset": 0,
            "type": "VEC3",
            "count": 112,
            "min": [
                0.000000000000,
                0.000000000000,
                0.000000000000
            ],
            "max": [
                2.000000000000,
                4.000000000000,
                3.000000000000
            ]
        },
        {
            "bufferView": 3,
            "componentType": 5121,
            "byteOffset": 24,
            "type": "VEC4",
            "count": 112,
            "normalized": true
        },
        {
            "bufferView": 3,
            "componentType": 5126,
            "byteOffset": 12,
            "type": "VEC3",
            "count": 112
        },
        {
            "bufferView": 4,
            "componentType": 5123,
            "count": 54,
            "type": "SCALAR"
        },
        {
            "bufferView": 5,
            "componentType": 5126,
            "byteOffset": 0,
            "type": "VEC3",
            "count": 36,
            "min": [
                14.000000000000,
                15.000000000000,
                2.000000000000
            ],
            "max": [
                15.000000000000,
                16.000000000000,
                4.000000000000
            ]
        },
        {
            "bufferView": 5,
            "componentType": 5121,
            "byteOffset": 24,
            "type": "VEC4",
            "count": 36,
            "normalized": true
        },
        {
            "bufferView": 5,
            "componentType": 5126,
            "byteOffset": 12,
            "type": "VEC3",
            "count": 36
        }
    ],
    "nodes": [
        {
            "matrix": [
                1,
                0,
                0,
                0,
                0,
                0,
                -1,
                0,
                0,
                1,
                0,
                0,
                0,
                0,
                0,
                1
            ],
            "children": [
                1,
                2,
                3
            ]
        },
        {
            "translation": [
                -16,
                0,
                0
            ],
            "mesh": 0
        },
        {
            "translation": [
                0,
                0,
                0
            ],
            "mesh": 1
        },
        {
            "translation": [
                -16,
                -16,
                0
            ],
            "mesh": 2
        }
    ],
    "scenes": [
        {
            "nodes": [
                0
            ]
        }
    ]
}